<svg width="138.95" height="70.3" viewBox="0 0 138.95 70.3" xmlns="http://www.w3.org/2000/svg"><g id="svgGroup" stroke-linecap="round" fill-rule="evenodd" font-size="9pt" stroke="#FFF" stroke-width="0.25mm" fill="#FFF" style="stroke:#FFF;stroke-width:0.25mm;fill:#FFF"><path d="M 79.8 59.1 L 79.8 12.6 Q 79.8 9.369 79.504 7.558 A 9.091 9.091 0 0 0 79.3 6.6 A 3.107 3.107 0 0 0 77.501 4.531 A 4.923 4.923 0 0 0 76.7 4.25 Q 74.6 3.7 69.8 3.3 Q 69.613 1.894 69.777 0.312 A 15.465 15.465 0 0 1 69.8 0.1 A 162.93 162.93 0 0 1 69.847 0.1 Q 71.835 0.101 74.75 0.15 Q 77.7 0.2 80.6 0.25 Q 83.5 0.3 85.3 0.3 Q 86.606 0.3 88.314 0.276 A 377.312 377.312 0 0 0 89.95 0.25 Q 92.7 0.2 95.55 0.15 Q 97.509 0.116 99.067 0.105 A 193.856 193.856 0 0 1 100.4 0.1 Q 100.7 1.6 100.4 3.3 Q 96.932 3.602 94.942 3.96 A 17.692 17.692 0 0 0 93.8 4.2 Q 91.8 4.7 91.3 6.2 A 6.796 6.796 0 0 0 91.07 7.145 Q 90.888 8.16 90.829 9.687 A 41.625 41.625 0 0 0 90.8 11.3 L 90.8 36 L 113.8 11.6 A 48.415 48.415 0 0 0 115.091 10.154 Q 117.6 7.219 117.6 6 A 1.592 1.592 0 0 0 116.888 4.661 Q 116.612 4.46 116.23 4.303 A 4.886 4.886 0 0 0 115.8 4.15 Q 114.443 3.735 111.779 3.463 A 65.5 65.5 0 0 0 109.9 3.3 A 14.314 14.314 0 0 1 109.802 1.863 Q 109.787 0.95 109.9 0.1 Q 111.515 0.1 113.943 0.145 A 403.277 403.277 0 0 1 114.2 0.15 L 119.4 0.25 Q 122 0.3 123.6 0.3 A 184.486 184.486 0 0 0 127.463 0.261 A 155.072 155.072 0 0 0 129.65 0.2 Q 132.5 0.1 135.9 0.1 Q 136.1 1.7 135.9 3.3 Q 133.658 3.517 131.966 3.838 A 24.204 24.204 0 0 0 130.75 4.1 Q 128.7 4.6 126.85 5.8 A 20.577 20.577 0 0 0 125.399 6.841 Q 124.63 7.44 123.796 8.185 A 43.692 43.692 0 0 0 122.7 9.2 Q 120.643 11.168 117.625 14.256 A 411.599 411.599 0 0 0 116.9 15 L 102.2 30.2 L 122.8 57.3 Q 125.2 60.4 126.8 62.25 A 18.15 18.15 0 0 0 128.089 63.602 Q 128.764 64.237 129.43 64.707 A 9.581 9.581 0 0 0 129.95 65.05 A 10.027 10.027 0 0 0 132.2 66.06 A 12.524 12.524 0 0 0 133.55 66.4 A 35.588 35.588 0 0 0 135.095 66.663 Q 136.7 66.903 138.8 67.1 Q 139.1 68.7 138.8 70.3 Q 137.494 70.3 135.857 70.276 A 325.245 325.245 0 0 1 134.3 70.25 Q 131.7 70.2 129.2 70.15 A 295.262 295.262 0 0 0 127.423 70.12 Q 126.724 70.11 126.093 70.105 A 154.568 154.568 0 0 0 124.9 70.1 Q 123.916 70.1 122.412 70.14 A 183.945 183.945 0 0 0 122.05 70.15 Q 120.3 70.2 118.9 70.2 L 94.9 37.9 L 90.8 42.4 L 90.8 57.8 Q 90.8 61.031 91.096 62.871 A 9.661 9.661 0 0 0 91.3 63.85 A 3.049 3.049 0 0 0 93.027 65.917 A 4.449 4.449 0 0 0 93.85 66.2 Q 95.9 66.7 100.4 67.1 Q 100.7 68.7 100.4 70.3 Q 99.025 70.3 97.248 70.276 A 401.131 401.131 0 0 1 95.55 70.25 L 89.85 70.15 Q 87.069 70.101 85.192 70.1 A 147.084 147.084 0 0 0 85.1 70.1 Q 83.2 70.1 80.4 70.15 Q 77.6 70.2 74.75 70.25 A 378.71 378.71 0 0 1 72.718 70.28 Q 71.915 70.29 71.186 70.295 A 207.47 207.47 0 0 1 69.8 70.3 Q 69.613 68.894 69.777 67.312 A 15.465 15.465 0 0 1 69.8 67.1 Q 74.22 66.64 76.351 66.222 A 20.584 20.584 0 0 0 76.7 66.15 Q 78.001 65.871 78.688 65.189 A 2.478 2.478 0 0 0 79.3 64.2 A 6.796 6.796 0 0 0 79.53 63.255 Q 79.712 62.24 79.771 60.713 A 41.625 41.625 0 0 0 79.8 59.1 Z M 27.3 59.1 L 27.3 4.5 L 20.1 4.5 A 31.616 31.616 0 0 0 17.007 4.642 Q 15.452 4.795 14.154 5.114 A 12.614 12.614 0 0 0 11.75 5.95 Q 8.7 7.4 6.85 10.3 A 32.381 32.381 0 0 0 5.47 12.7 Q 4.325 14.888 3.2 17.7 Q 2.394 17.801 1.588 17.8 A 12.888 12.888 0 0 1 0 17.7 L 1.15 8.5 Q 1.7 4.1 2.1 0 Q 8.6 0.4 16.5 0.45 Q 24.4 0.5 32.9 0.5 Q 41.5 0.5 49.45 0.45 Q 57.4 0.4 63.8 0 Q 64.2 4 64.6 8.45 Q 65 12.9 65.6 17.7 Q 63.9 17.9 62.3 17.7 Q 60.855 14.201 59.409 11.685 A 29.823 29.823 0 0 0 58.5 10.2 A 12.125 12.125 0 0 0 55.35 6.892 A 11.46 11.46 0 0 0 53.65 5.9 A 12.054 12.054 0 0 0 51.344 5.103 Q 48.878 4.5 45.4 4.5 L 38.3 4.5 L 38.3 57.8 A 78.341 78.341 0 0 0 38.32 59.611 Q 38.356 61.202 38.463 62.34 A 21.173 21.173 0 0 0 38.5 62.7 A 6.127 6.127 0 0 0 38.685 63.681 Q 38.832 64.205 39.071 64.608 A 2.685 2.685 0 0 0 39.65 65.3 A 3.709 3.709 0 0 0 40.439 65.797 Q 41.234 66.178 42.43 66.402 A 13.636 13.636 0 0 0 42.7 66.45 A 40.174 40.174 0 0 0 44.169 66.664 Q 45.956 66.894 48.5 67.1 Q 48.8 68.7 48.5 70.3 Q 47.056 70.3 45.211 70.276 A 425.787 425.787 0 0 1 43.45 70.25 Q 40.5 70.2 37.6 70.15 A 407.238 407.238 0 0 0 35.552 70.12 Q 34.751 70.11 34.038 70.105 A 195.973 195.973 0 0 0 32.7 70.1 Q 30.8 70.1 27.95 70.15 Q 25.1 70.2 22.15 70.25 Q 20.122 70.284 18.496 70.295 A 211.848 211.848 0 0 1 17.1 70.3 Q 16.913 68.894 17.077 67.312 A 15.465 15.465 0 0 1 17.1 67.1 Q 21.704 66.64 23.85 66.222 A 19.235 19.235 0 0 0 24.2 66.15 Q 25.501 65.871 26.188 65.189 A 2.478 2.478 0 0 0 26.8 64.2 A 6.796 6.796 0 0 0 27.03 63.255 Q 27.212 62.24 27.271 60.713 A 41.625 41.625 0 0 0 27.3 59.1 Z" vector-effect="non-scaling-stroke"/></g></svg>